HIERARCHY
ROOT joint_Root
{
	OFFSET 0.0 0.0 0.0
	CHANNELS 6 Xposition Yposition Zposition Zrotation Xrotation Yrotation 
	JOINT Hips
	{
		OFFSET -17.1583 93.1646 452.98
		CHANNELS 6 Xposition Yposition Zposition Zrotation Xrotation Yrotation 
		JOINT Spine
		{
			OFFSET 15.7357 0.0 0.0
			CHANNELS 6 Xposition Yposition Zposition Zrotation Xrotation Yrotation 
			JOINT Chest
			{
				OFFSET 8.98455 -0.406207 0.0
				CHANNELS 6 Xposition Yposition Zposition Zrotation Xrotation Yrotation 
				JOINT Neck
				{
					OFFSET 16.3773 0.0 0.0
					CHANNELS 6 Xposition Yposition Zposition Zrotation Xrotation Yrotation 
					JOINT Head
					{
						OFFSET 6.45672 0.0 0.0
						CHANNELS 6 Xposition Yposition Zposition Zrotation Xrotation Yrotation 
						End Site
						{
							OFFSET 0.0 0.0 0.0
						}
					}
				}
				JOINT Shoulder_L
				{
					OFFSET 12.9942 -0.242716 4.98039
					CHANNELS 6 Xposition Yposition Zposition Zrotation Xrotation Yrotation 
					JOINT UpperArm_L
					{
						OFFSET 5.34809 0.0 0.0
						CHANNELS 6 Xposition Yposition Zposition Zrotation Xrotation Yrotation 
						JOINT LowerArm_L
						{
							OFFSET 24.3286 1.87007e-05 0.0
							CHANNELS 6 Xposition Yposition Zposition Zrotation Xrotation Yrotation 
							JOINT Hand_L
							{
								OFFSET 22.2916 0.0 0.0
								CHANNELS 6 Xposition Yposition Zposition Zrotation Xrotation Yrotation 
								End Site
								{
									OFFSET 0.0 0.0 0.0
								}
							}
						}
					}
				}
				JOINT Shoulder_R
				{
					OFFSET 12.9945 -0.242716 -4.98039
					CHANNELS 6 Xposition Yposition Zposition Zrotation Xrotation Yrotation 
					JOINT UpperArm_R
					{
						OFFSET -5.34813 0.0 0.0
						CHANNELS 6 Xposition Yposition Zposition Zrotation Xrotation Yrotation 
						JOINT LowerArm_R
						{
							OFFSET -24.3289 0.000322201 0.0
							CHANNELS 6 Xposition Yposition Zposition Zrotation Xrotation Yrotation 
							JOINT Hand_R
							{
								OFFSET -22.2915 -0.000108084 0.0
								CHANNELS 6 Xposition Yposition Zposition Zrotation Xrotation Yrotation 
								End Site
								{
									OFFSET 0.0 0.0 0.0
								}
							}
						}
					}
				}
			}
		}
		JOINT UpperLeg_L
		{
			OFFSET -2.19248 -6.46944 0.0
			CHANNELS 6 Xposition Yposition Zposition Zrotation Xrotation Yrotation 
			JOINT LowerLeg_L
			{
				OFFSET 39.0811 0.0 -1.23785e-05
				CHANNELS 6 Xposition Yposition Zposition Zrotation Xrotation Yrotation 
				JOINT Foot_L
				{
					OFFSET 40.9854 0.0 -1.26872e-05
					CHANNELS 6 Xposition Yposition Zposition Zrotation Xrotation Yrotation 
					JOINT Toes_L
					{
						OFFSET 11.7543 0.0 0.0
						CHANNELS 6 Xposition Yposition Zposition Zrotation Xrotation Yrotation 
						End Site
						{
							OFFSET 0.0 0.0 0.0
						}
					}
				}
			}
		}
		JOINT UpperLeg_R
		{
			OFFSET -2.19251 6.46944 0.0
			CHANNELS 6 Xposition Yposition Zposition Zrotation Xrotation Yrotation 
			JOINT LowerLeg_R
			{
				OFFSET -39.0811 -0.00228153 -0.0401928
				CHANNELS 6 Xposition Yposition Zposition Zrotation Xrotation Yrotation 
				JOINT Foot_R
				{
					OFFSET -40.9854 0.0 0.0
					CHANNELS 6 Xposition Yposition Zposition Zrotation Xrotation Yrotation 
					JOINT Toes_R
					{
						OFFSET -11.7543 0.0 0.0
						CHANNELS 6 Xposition Yposition Zposition Zrotation Xrotation Yrotation 
						End Site
						{
							OFFSET 0.0 0.0 0.0
						}
					}
				}
			}
		}
	}
}
MOTION
Frames:	7
Frame Time:	0.0333333
0.000000 0.000000 0.000000 0.000000 0.000000 -0.000000 111.186000 91.029400 226.493000 -82.846600 62.941600 176.729000 15.735700 0.000005 -0.000001 88.879000 86.006000 -86.472600 8.984550 -0.406207 -0.000000 0.231679 -0.314342 4.810080 16.377300 -0.000001 -0.000001 11.636300 12.850500 -2.317740 6.456720 -0.000001 -0.000000 11.026400 20.346600 4.043850 12.994200 -0.242716 4.980390 -92.831800 7.156690 -68.344900 5.348090 -0.000007 -0.000001 -76.090300 2.735760 1.981960 24.328600 0.000019 0.000005 9.496340 16.026800 -31.206500 22.291600 -0.000001 0.000005 50.898000 4.527740 16.137300 12.994500 -0.242716 -4.980390 89.083600 2.757890 -71.611800 -5.348130 -0.000001 -0.000004 -72.372700 11.661400 4.205620 -24.328900 0.000322 -0.000009 1.770570 10.669300 -9.485240 -22.291500 -0.000108 -0.000004 32.837700 5.445190 -4.467620 -2.192480 -6.469440 -0.000000 169.650000 -0.121147 -4.228360 39.081100 -0.000007 -0.000012 0.220499 -0.606974 19.965300 40.985400 -0.000006 -0.000013 15.805400 5.754680 -66.187800 11.754300 -0.000000 0.000003 -0.000127 0.169735 -9.692320 -2.192510 6.469440 -0.000001 173.602000 -5.983160 159.287000 -39.081100 -0.002282 -0.040193 0.079726 -0.037463 63.924000 -40.985400 0.000008 0.000006 -8.547750 -4.436020 -51.163600 -11.754300 -0.000006 -0.000006 -0.003353 0.212202 -7.962250
0.000000 0.000000 0.000000 0.000000 0.000000 -0.000000 114.038000 91.533100 225.787000 -81.533900 57.625100 175.861000 15.735700 0.000005 -0.000001 79.110200 85.731800 -76.314000 8.984550 -0.406207 -0.000000 0.666885 -1.785240 5.598960 16.377300 -0.000001 -0.000001 10.615200 12.039300 -1.806900 6.456720 -0.000001 -0.000000 10.412100 19.448000 4.127310 12.994200 -0.242716 4.980390 -92.663700 6.970820 -69.026600 5.348090 -0.000007 -0.000001 -76.287000 6.148110 -1.941300 24.328600 0.000019 0.000005 12.965600 18.101700 -36.532600 22.291600 -0.000001 0.000005 51.218300 4.559300 15.607600 12.994500 -0.242716 -4.980390 89.123300 2.592230 -71.306900 -5.348130 -0.000001 -0.000004 -71.770000 9.167350 7.784350 -24.328900 0.000322 -0.000009 1.635450 11.759500 -7.980210 -22.291500 -0.000108 -0.000004 32.321300 5.430530 -3.956010 -2.192480 -6.469440 -0.000000 171.451000 3.202530 0.046188 39.081100 -0.000007 -0.000012 0.154495 -0.505902 16.982200 40.985400 -0.000006 -0.000013 15.632400 7.645930 -66.854000 11.754300 -0.000000 0.000003 0.000417 0.160276 -10.076400 -2.192510 6.469440 -0.000001 174.745000 -7.308590 157.931000 -39.081100 -0.002282 -0.040193 0.031164 -0.017482 57.976400 -40.985400 0.000008 0.000006 -6.497430 -11.071200 -57.492300 -11.754300 -0.000006 -0.000006 -0.004525 0.224457 -7.463160
0.000000 0.000000 0.000000 0.000000 0.000000 -0.000000 116.841000 91.897200 225.054000 -81.149000 52.572900 175.665000 15.735700 0.000005 -0.000001 72.417100 85.472400 -69.466600 8.984550 -0.406207 -0.000000 0.949559 -2.909770 5.921510 16.377300 -0.000001 -0.000001 9.457460 11.082100 -0.980197 6.456720 -0.000001 -0.000000 9.856590 18.482700 4.511000 12.994200 -0.242716 4.980390 -92.435400 6.617950 -69.744500 5.348090 -0.000007 -0.000001 -76.078600 8.490960 -5.790600 24.328600 0.000019 0.000005 17.883300 20.449100 -42.718500 22.291600 -0.000001 0.000005 51.957600 4.540750 15.921000 12.994500 -0.242716 -4.980390 89.209600 2.295220 -70.991400 -5.348130 -0.000001 -0.000004 -71.610800 6.735160 11.291800 -24.328900 0.000322 -0.000009 1.613010 12.903000 -7.192280 -22.291500 -0.000108 -0.000004 31.818800 5.423390 -3.713610 -2.192480 -6.469440 -0.000000 173.047000 5.742730 4.209360 39.081100 -0.000007 -0.000012 0.089030 -0.372048 13.457800 40.985400 -0.000006 -0.000013 15.449900 10.096000 -67.468000 11.754300 -0.000000 0.000003 0.001333 0.140913 -10.862300 -2.192510 6.469440 -0.000001 175.116000 -8.547430 157.451000 -39.081100 -0.002282 -0.040193 0.015291 -0.010394 49.197300 -40.985400 0.000008 0.000006 -5.235460 -15.879600 -60.847900 -11.754300 -0.000006 -0.000006 -0.003865 0.217698 -7.738490
0.000000 0.000000 0.000000 0.000000 0.000000 -0.000000 119.617000 92.042000 224.218000 -81.767900 48.135600 176.305000 15.735700 0.000005 -0.000001 67.650400 85.245600 -64.858100 8.984550 -0.406207 -0.000000 1.129510 -3.775810 5.618860 16.377300 -0.000001 -0.000001 8.408290 10.136800 -0.201629 6.456720 -0.000001 -0.000000 9.375380 17.634100 5.112490 12.994200 -0.242716 4.980390 -92.215200 6.209760 -70.322600 5.348090 -0.000007 -0.000001 -75.539800 9.855560 -9.268920 24.328600 0.000019 0.000005 22.868900 21.522800 -48.978700 22.291600 -0.000001 0.000005 52.366600 4.536610 15.990300 12.994500 -0.242716 -4.980390 89.344700 1.875530 -70.737300 -5.348130 -0.000001 -0.000004 -71.890400 4.973080 14.347400 -24.328900 0.000322 -0.000009 1.599930 13.966900 -6.605550 -22.291500 -0.000108 -0.000004 31.821100 5.420620 -3.620030 -2.192480 -6.469440 -0.000000 174.407000 7.243940 7.001500 39.081100 -0.000007 -0.000012 0.044805 -0.213583 11.847900 40.985400 -0.000006 -0.000013 13.101700 13.343600 -68.009700 11.754300 -0.000000 0.000003 0.001408 0.139045 -10.938100 -2.192510 6.469440 -0.000001 174.528000 -9.504700 157.941000 -39.081100 -0.002282 -0.040193 0.017360 -0.017623 38.619500 -40.985400 0.000008 0.000006 -5.159810 -17.807500 -63.418300 -11.754300 -0.000006 -0.000006 -0.004951 0.228654 -7.292150
0.000000 0.000000 0.000000 0.000000 0.000000 -0.000000 122.387000 91.917600 223.222000 -82.587800 44.869900 176.932000 15.735700 0.000005 -0.000001 65.281100 85.134200 -62.787300 8.984550 -0.406207 -0.000000 1.174290 -4.211080 5.028340 16.377300 -0.000001 -0.000001 7.485520 9.496960 0.491413 6.456720 -0.000001 -0.000000 8.899000 16.926600 5.573470 12.994200 -0.242716 4.980390 -92.090600 5.973120 -70.669500 5.348090 -0.000007 -0.000001 -74.694600 10.551500 -12.158500 24.328600 0.000019 0.000005 27.200800 21.300400 -54.745200 22.291600 -0.000001 0.000005 52.942400 4.527230 16.147400 12.994500 -0.242716 -4.980390 89.462100 1.534410 -70.678900 -5.348130 -0.000001 -0.000004 -72.176000 3.797490 16.537400 -24.328900 0.000322 -0.000009 1.501800 14.450200 -6.001940 -22.291500 -0.000108 -0.000004 31.672500 5.415240 -3.439320 -2.192480 -6.469440 -0.000000 175.469000 8.826290 8.402260 39.081100 -0.000007 -0.000012 0.011562 -0.053198 12.262800 40.985400 -0.000006 -0.000013 9.214850 15.965100 -67.935100 11.754300 -0.000000 0.000003 0.001981 0.121657 -11.643400 -2.192510 6.469440 -0.000001 173.749000 -9.767030 158.821000 -39.081100 -0.002282 -0.040193 0.015371 -0.023311 27.362000 -40.985400 0.000008 0.000006 -5.556620 -16.494700 -65.145600 -11.754300 -0.000006 -0.000006 -0.005196 0.231017 -7.195850
0.000000 0.000000 0.000000 0.000000 0.000000 -0.000000 125.275000 91.624500 221.966000 -83.252700 42.778300 177.562000 15.735700 0.000005 -0.000001 65.278600 85.035000 -63.085700 8.984550 -0.406207 -0.000000 1.343790 -4.273720 4.433810 16.377300 -0.000001 -0.000001 6.610450 9.196730 0.805558 6.456720 -0.000001 -0.000000 8.358800 16.494400 5.976460 12.994200 -0.242716 4.980390 -92.022500 5.801700 -70.743200 5.348090 -0.000007 -0.000001 -73.977600 10.576800 -14.465500 24.328600 0.000019 0.000005 30.405100 20.382600 -59.309000 22.291600 -0.000001 0.000005 53.445400 4.517090 16.316600 12.994500 -0.242716 -4.980390 89.553800 1.280050 -70.779900 -5.348130 -0.000001 -0.000004 -72.393100 3.279920 17.501100 -24.328900 0.000322 -0.000009 1.303900 14.462500 -5.211500 -22.291500 -0.000108 -0.000004 31.829300 5.410490 -3.282270 -2.192480 -6.469440 -0.000000 175.979000 9.780340 9.790310 39.081100 -0.000007 -0.000012 0.002270 -0.009482 13.465500 40.985400 -0.000006 -0.000013 7.993220 17.181300 -68.552200 11.754300 -0.000000 0.000003 0.066554 0.184075 -12.731100 -2.192510 6.469440 -0.000001 173.525000 -9.374370 160.219000 -39.081100 -0.002282 -0.040193 0.008852 -0.018488 16.637100 -40.985400 0.000008 0.000006 -6.385980 -12.789600 -65.773700 -11.754300 -0.000006 -0.000006 -0.005428 0.233215 -7.106260
0.000000 0.000000 0.000000 0.000000 0.000000 -0.000000 128.327000 91.246000 220.429000 -83.678300 41.359700 177.936000 15.735700 0.000005 -0.000001 65.547500 85.017500 -63.577700 8.984550 -0.406207 -0.000000 1.385240 -4.232570 3.988970 16.377300 -0.000001 -0.000001 6.029640 9.160890 0.834793 6.456720 -0.000001 -0.000000 7.828480 16.216000 6.100580 12.994200 -0.242716 4.980390 -91.960400 5.645970 -70.816600 5.348090 -0.000007 -0.000001 -73.550700 10.063600 -15.723800 24.328600 0.000019 0.000005 32.232200 19.052000 -62.628700 22.291600 -0.000001 0.000005 53.721900 4.510100 16.432700 12.994500 -0.242716 -4.980390 89.571800 1.240780 -70.957900 -5.348130 -0.000001 -0.000004 -72.281600 3.259190 17.280800 -24.328900 0.000322 -0.000009 1.078350 14.289500 -4.365040 -22.291500 -0.000108 -0.000004 32.368000 5.401860 -2.998530 -2.192480 -6.469440 -0.000000 176.367000 10.198100 10.820000 39.081100 -0.000007 -0.000012 0.004220 -0.015069 15.647400 40.985400 -0.000006 -0.000013 8.481700 17.783200 -69.620000 11.754300 -0.000000 0.000003 0.002229 0.056782 -14.273600 -2.192510 6.469440 -0.000001 174.316000 -7.880570 161.358000 -39.081100 -0.002282 -0.040193 0.005015 -0.011109 8.567820 -40.985400 0.000008 0.000006 -7.526620 -7.093790 -65.595300 -11.754300 -0.000006 -0.000006 -0.006489 0.242883 -6.711960
